<?xml version="1.0" encoding="UTF-8"?>
<svg xmlns="http://www.w3.org/2000/svg" xmlns:xlink="http://www.w3.org/1999/xlink" width="1920" height="1080" viewBox="0 0 1920 1080">
<defs>
<g>
<g id="glyph-0-0">
<path d="M 1.105469 -3.402344 L 1.398438 -3.191406 L 1.300781 -3.125 C 1.203125 -3.003906 1.132812 -2.917969 1.089844 -2.863281 L 1.804688 -2.863281 L 1.984375 -3.042969 L 2.246094 -2.765625 L 1.351562 -2.765625 C 1.4375 -2.710938 1.511719 -2.648438 1.578125 -2.578125 C 1.644531 -2.507812 1.671875 -2.441406 1.667969 -2.375 C 1.664062 -2.3125 1.644531 -2.269531 1.609375 -2.246094 C 1.578125 -2.222656 1.550781 -2.214844 1.53125 -2.214844 C 1.496094 -2.214844 1.476562 -2.246094 1.464844 -2.3125 C 1.441406 -2.410156 1.414062 -2.492188 1.382812 -2.5625 C 1.351562 -2.632812 1.308594 -2.703125 1.253906 -2.765625 L 1.042969 -2.765625 C 0.945312 -2.660156 0.84375 -2.554688 0.742188 -2.457031 C 0.636719 -2.359375 0.503906 -2.257812 0.339844 -2.148438 L 0.308594 -2.195312 C 0.503906 -2.382812 0.671875 -2.582031 0.804688 -2.800781 C 0.941406 -3.015625 1.042969 -3.21875 1.105469 -3.402344 M 2.585938 -3.386719 L 2.878906 -3.171875 L 2.78125 -3.125 C 2.695312 -3.015625 2.625 -2.929688 2.570312 -2.863281 L 3.386719 -2.863281 L 3.582031 -3.058594 L 3.855469 -2.765625 L 2.816406 -2.765625 C 2.933594 -2.703125 3.027344 -2.636719 3.09375 -2.570312 C 3.15625 -2.507812 3.179688 -2.4375 3.15625 -2.367188 C 3.136719 -2.296875 3.101562 -2.246094 3.050781 -2.214844 C 3.003906 -2.179688 2.972656 -2.207031 2.960938 -2.292969 C 2.941406 -2.382812 2.914062 -2.460938 2.878906 -2.53125 C 2.847656 -2.601562 2.800781 -2.679688 2.734375 -2.765625 L 2.523438 -2.765625 C 2.414062 -2.648438 2.273438 -2.523438 2.097656 -2.390625 L 2.066406 -2.441406 C 2.195312 -2.59375 2.308594 -2.757812 2.402344 -2.9375 C 2.492188 -3.117188 2.554688 -3.265625 2.585938 -3.386719 M 2.019531 -2 C 2.019531 -2.152344 2.011719 -2.277344 2 -2.375 L 2.34375 -2.230469 L 2.230469 -2.117188 L 2.230469 -2 L 3.335938 -2 L 3.597656 -2.246094 L 3.921875 -1.902344 L 2.230469 -1.902344 L 2.230469 -1.546875 L 3.09375 -1.546875 L 3.253906 -1.707031 L 3.464844 -1.496094 L 3.335938 -1.398438 L 3.335938 -0.945312 C 3.335938 -0.835938 3.320312 -0.757812 3.289062 -0.707031 C 3.253906 -0.660156 3.179688 -0.609375 3.058594 -0.554688 C 2.996094 -0.695312 2.855469 -0.792969 2.636719 -0.847656 L 2.636719 -0.910156 C 2.800781 -0.890625 2.902344 -0.878906 2.945312 -0.878906 C 2.976562 -0.867188 3.015625 -0.867188 3.058594 -0.871094 C 3.101562 -0.875 3.125 -0.917969 3.125 -0.992188 L 3.125 -1.449219 L 2.230469 -1.449219 L 2.230469 -1.058594 C 2.4375 -0.796875 2.640625 -0.597656 2.847656 -0.457031 C 3.054688 -0.316406 3.242188 -0.21875 3.410156 -0.164062 C 3.578125 -0.109375 3.769531 -0.0703125 3.988281 -0.046875 L 3.988281 0 C 3.804688 0.0429688 3.695312 0.121094 3.660156 0.226562 C 3.5 0.171875 3.335938 0.09375 3.171875 -0.0078125 C 3.011719 -0.109375 2.855469 -0.226562 2.710938 -0.359375 C 2.5625 -0.488281 2.402344 -0.679688 2.230469 -0.925781 L 2.230469 -0.0664062 C 2.230469 0.0546875 2.234375 0.171875 2.246094 0.292969 L 2 0.40625 C 2.011719 0.101562 2.019531 -0.113281 2.019531 -0.242188 L 2.019531 -0.828125 C 1.789062 -0.582031 1.511719 -0.355469 1.1875 -0.15625 C 0.863281 0.046875 0.535156 0.207031 0.210938 0.324219 L 0.195312 0.261719 C 0.574219 0.0742188 0.917969 -0.128906 1.21875 -0.359375 C 1.523438 -0.585938 1.789062 -0.851562 2.019531 -1.15625 L 2.019531 -1.449219 L 1.105469 -1.449219 L 1.105469 -0.617188 L 0.878906 -0.519531 C 0.890625 -0.707031 0.894531 -0.898438 0.894531 -1.097656 C 0.894531 -1.300781 0.890625 -1.488281 0.878906 -1.660156 L 1.105469 -1.546875 L 2.019531 -1.546875 L 2.019531 -1.902344 L 0.847656 -1.902344 C 0.707031 -1.902344 0.574219 -1.886719 0.457031 -1.855469 L 0.308594 -2 Z "/>
</g>
<g id="glyph-0-1">
<path d="M 0.554688 -2.652344 L 0.554688 -1.691406 L 0.878906 -1.691406 L 0.878906 -2.652344 L 0.554688 -2.652344 M 1.074219 -2.652344 L 1.074219 -1.691406 L 1.398438 -1.691406 L 1.398438 -2.652344 L 1.074219 -2.652344 M 0.554688 -1.59375 L 0.554688 -0.585938 L 0.878906 -0.585938 L 0.878906 -1.59375 L 0.554688 -1.59375 M 1.074219 -1.59375 L 1.074219 -0.585938 L 1.398438 -0.585938 L 1.398438 -1.59375 L 1.074219 -1.59375 M 0.339844 -0.113281 C 0.351562 -0.503906 0.359375 -0.972656 0.359375 -1.523438 C 0.359375 -2.070312 0.351562 -2.527344 0.339844 -2.898438 L 0.554688 -2.75 L 1.382812 -2.75 L 1.496094 -2.898438 L 1.726562 -2.703125 L 1.59375 -2.585938 L 1.59375 -1.074219 C 1.59375 -0.78125 1.601562 -0.53125 1.609375 -0.324219 L 1.398438 -0.261719 L 1.398438 -0.488281 L 0.554688 -0.488281 L 0.554688 -0.210938 L 0.339844 -0.113281 M 2.507812 -3.140625 L 2.359375 -2.832031 L 3.222656 -2.832031 L 3.351562 -2.976562 L 3.613281 -2.734375 L 3.449219 -2.652344 C 3.210938 -2.285156 3.027344 -2.023438 2.898438 -1.871094 C 3.179688 -1.589844 3.542969 -1.410156 3.988281 -1.335938 L 3.988281 -1.285156 C 3.824219 -1.265625 3.734375 -1.195312 3.710938 -1.074219 C 3.332031 -1.238281 3.023438 -1.453125 2.78125 -1.726562 C 2.535156 -1.476562 2.289062 -1.28125 2.050781 -1.140625 L 2.214844 -0.992188 L 3.238281 -0.992188 L 3.351562 -1.140625 L 3.597656 -0.945312 L 3.484375 -0.847656 C 3.484375 -0.324219 3.488281 0.0429688 3.5 0.261719 L 3.269531 0.339844 L 3.269531 0.0976562 L 2.214844 0.0976562 L 2.214844 0.308594 L 1.984375 0.390625 C 1.996094 0.128906 2 -0.367188 2 -1.105469 L 1.628906 -0.945312 L 1.609375 -0.992188 C 2.035156 -1.242188 2.386719 -1.535156 2.667969 -1.871094 C 2.496094 -2.152344 2.375 -2.429688 2.3125 -2.703125 C 2.171875 -2.429688 1.996094 -2.179688 1.789062 -1.953125 L 1.742188 -1.984375 C 1.859375 -2.160156 1.972656 -2.382812 2.074219 -2.652344 C 2.179688 -2.925781 2.257812 -3.171875 2.3125 -3.402344 L 2.652344 -3.222656 L 2.507812 -3.140625 M 2.214844 -0.894531 L 2.214844 0 L 3.269531 0 L 3.269531 -0.894531 L 2.214844 -0.894531 M 2.359375 -2.734375 C 2.46875 -2.453125 2.609375 -2.214844 2.78125 -2.019531 C 2.945312 -2.234375 3.09375 -2.472656 3.222656 -2.734375 Z "/>
</g>
<g id="glyph-0-2">
<path d="M 0.828125 0.390625 C 0.839844 0.0742188 0.847656 -0.183594 0.847656 -0.390625 L 0.847656 -2.132812 C 0.597656 -1.773438 0.378906 -1.503906 0.195312 -1.316406 L 0.144531 -1.367188 C 0.332031 -1.617188 0.519531 -1.933594 0.707031 -2.320312 C 0.898438 -2.703125 1.042969 -3.066406 1.140625 -3.402344 L 1.480469 -3.191406 C 1.363281 -3.113281 1.175781 -2.820312 0.925781 -2.3125 L 1.203125 -2.164062 L 1.074219 -2.035156 L 1.074219 -0.308594 C 1.074219 -0.199219 1.078125 -0.0117188 1.089844 0.261719 L 0.828125 0.390625 M 2.78125 -3.171875 C 3.195312 -3.03125 3.414062 -2.929688 3.441406 -2.863281 C 3.46875 -2.800781 3.484375 -2.746094 3.484375 -2.703125 C 3.484375 -2.648438 3.46875 -2.59375 3.441406 -2.539062 C 3.414062 -2.484375 3.390625 -2.457031 3.367188 -2.457031 C 3.324219 -2.457031 3.28125 -2.507812 3.238281 -2.605469 C 3.152344 -2.757812 2.988281 -2.929688 2.75 -3.125 L 2.78125 -3.171875 M 2.132812 -2.164062 L 2.132812 -2.71875 C 2.132812 -2.945312 2.125 -3.164062 2.117188 -3.367188 L 2.507812 -3.191406 L 2.359375 -3.058594 L 2.359375 -2.164062 L 3.269531 -2.164062 L 3.484375 -2.375 L 3.792969 -2.066406 L 2.816406 -2.066406 L 2.816406 -0.195312 C 2.816406 -0.0429688 2.890625 0.03125 3.042969 0.03125 L 3.53125 0.03125 C 3.609375 0.0117188 3.65625 -0.0742188 3.679688 -0.226562 C 3.699219 -0.378906 3.710938 -0.542969 3.710938 -0.714844 L 3.792969 -0.714844 C 3.792969 -0.554688 3.800781 -0.398438 3.816406 -0.253906 C 3.832031 -0.105469 3.890625 -0.0234375 3.988281 0 C 3.902344 0.152344 3.78125 0.226562 3.628906 0.226562 L 2.976562 0.226562 C 2.730469 0.238281 2.605469 0.136719 2.605469 -0.0820312 L 2.605469 -2.066406 L 2.359375 -2.066406 C 2.347656 -1.675781 2.304688 -1.332031 2.230469 -1.035156 C 2.152344 -0.734375 2.027344 -0.46875 1.855469 -0.234375 C 1.683594 -0.00390625 1.441406 0.21875 1.140625 0.421875 L 1.089844 0.375 C 1.316406 0.191406 1.507812 -0.0195312 1.660156 -0.253906 C 1.8125 -0.484375 1.925781 -0.753906 2 -1.058594 C 2.078125 -1.363281 2.121094 -1.699219 2.132812 -2.066406 L 1.773438 -2.066406 C 1.632812 -2.066406 1.503906 -2.050781 1.382812 -2.019531 L 1.238281 -2.164062 Z "/>
</g>
<g id="glyph-0-3">
<path d="M 0.894531 0.390625 C 0.90625 0.0429688 0.910156 -0.289062 0.910156 -0.601562 L 0.910156 -2.035156 C 0.671875 -1.675781 0.445312 -1.382812 0.226562 -1.15625 L 0.179688 -1.203125 C 0.417969 -1.539062 0.640625 -1.929688 0.847656 -2.375 C 1.050781 -2.820312 1.183594 -3.15625 1.238281 -3.386719 L 1.59375 -3.171875 L 1.433594 -3.074219 C 1.292969 -2.761719 1.160156 -2.488281 1.042969 -2.261719 L 1.269531 -2.132812 L 1.140625 -2 L 1.140625 -0.226562 C 1.140625 -0.109375 1.144531 0.0546875 1.15625 0.261719 L 0.894531 0.390625 M 2.246094 -1.382812 L 2.246094 -2.554688 C 2.246094 -2.792969 2.242188 -3.070312 2.230469 -3.386719 L 2.605469 -3.207031 L 2.472656 -3.074219 L 2.472656 -1.5625 C 2.625 -1.703125 2.792969 -1.882812 2.96875 -2.097656 C 3.148438 -2.316406 3.277344 -2.488281 3.351562 -2.621094 L 3.644531 -2.34375 L 3.464844 -2.292969 C 3.152344 -1.9375 2.820312 -1.605469 2.472656 -1.300781 L 2.472656 -0.277344 C 2.472656 -0.09375 2.566406 0 2.75 0 L 3.449219 0 C 3.539062 0 3.589844 -0.0703125 3.613281 -0.210938 C 3.636719 -0.351562 3.644531 -0.570312 3.644531 -0.863281 L 3.726562 -0.863281 C 3.75 -0.570312 3.777344 -0.375 3.808594 -0.277344 C 3.839844 -0.179688 3.902344 -0.113281 3.988281 -0.0820312 C 3.890625 0.113281 3.734375 0.210938 3.515625 0.210938 L 2.652344 0.210938 C 2.382812 0.210938 2.246094 0.0859375 2.246094 -0.164062 L 2.246094 -1.15625 C 1.964844 -0.9375 1.636719 -0.753906 1.269531 -0.601562 L 1.253906 -0.667969 C 1.632812 -0.882812 1.964844 -1.121094 2.246094 -1.382812 Z "/>
</g>
<g id="glyph-0-4">
<path d="M 1.023438 -3.140625 L 1.398438 -2.929688 C 1.292969 -2.875 1.160156 -2.675781 1.007812 -2.328125 L 1.96875 -2.328125 C 1.96875 -2.828125 1.964844 -3.191406 1.953125 -3.417969 L 2.34375 -3.253906 L 2.214844 -3.140625 L 2.214844 -2.328125 L 3.140625 -2.328125 L 3.386719 -2.570312 L 3.695312 -2.230469 L 2.214844 -2.230469 L 2.214844 -1.21875 L 2.945312 -1.21875 L 3.207031 -1.464844 L 3.5 -1.121094 L 2.214844 -1.121094 L 2.214844 0.046875 L 3.386719 0.046875 L 3.644531 -0.210938 L 3.972656 0.144531 L 0.730469 0.144531 C 0.589844 0.144531 0.460938 0.164062 0.339844 0.195312 L 0.195312 0.046875 L 1.96875 0.046875 L 1.96875 -1.121094 L 1.351562 -1.121094 C 1.210938 -1.121094 1.078125 -1.105469 0.960938 -1.074219 L 0.8125 -1.21875 L 1.96875 -1.21875 L 1.96875 -2.230469 L 0.976562 -2.230469 C 0.726562 -1.761719 0.503906 -1.433594 0.308594 -1.238281 L 0.261719 -1.269531 C 0.445312 -1.550781 0.601562 -1.859375 0.730469 -2.195312 C 0.863281 -2.535156 0.960938 -2.847656 1.023438 -3.140625 Z "/>
</g>
<g id="glyph-0-5">
<path d="M 2.816406 -3.304688 C 3.042969 -3.171875 3.195312 -3.074219 3.269531 -3.003906 C 3.347656 -2.933594 3.378906 -2.863281 3.359375 -2.792969 C 3.34375 -2.722656 3.316406 -2.671875 3.269531 -2.644531 C 3.226562 -2.617188 3.199219 -2.605469 3.191406 -2.605469 C 3.148438 -2.605469 3.113281 -2.648438 3.09375 -2.734375 C 3.058594 -2.855469 2.953125 -3.027344 2.765625 -3.253906 L 2.816406 -3.304688 M 3.660156 -0.0664062 L 3.855469 -0.765625 L 3.921875 -0.75 C 3.878906 -0.414062 3.855469 -0.191406 3.855469 -0.0820312 C 3.855469 0.0273438 3.882812 0.128906 3.9375 0.226562 C 3.960938 0.269531 3.949219 0.292969 3.90625 0.292969 C 3.832031 0.292969 3.6875 0.253906 3.484375 0.179688 C 3.277344 0.101562 3.039062 -0.101562 2.765625 -0.4375 C 2.429688 -0.09375 2.0625 0.167969 1.660156 0.339844 L 1.644531 0.277344 C 2.078125 -0.00390625 2.410156 -0.304688 2.636719 -0.617188 C 2.417969 -1.019531 2.277344 -1.605469 2.214844 -2.375 L 0.925781 -2.375 L 0.910156 -1.59375 L 1.660156 -1.59375 L 1.804688 -1.757812 L 2.050781 -1.53125 L 1.902344 -1.414062 C 1.871094 -0.765625 1.828125 -0.386719 1.773438 -0.285156 C 1.71875 -0.183594 1.617188 -0.0976562 1.464844 -0.03125 C 1.433594 -0.183594 1.285156 -0.308594 1.023438 -0.40625 L 1.023438 -0.472656 C 1.230469 -0.4375 1.375 -0.417969 1.457031 -0.40625 C 1.539062 -0.394531 1.589844 -0.441406 1.609375 -0.546875 C 1.632812 -0.648438 1.65625 -0.964844 1.675781 -1.496094 L 0.910156 -1.496094 C 0.878906 -0.597656 0.652344 0.03125 0.226562 0.390625 L 0.195312 0.339844 C 0.476562 -0.0585938 0.625 -0.492188 0.644531 -0.953125 C 0.660156 -1.414062 0.667969 -1.761719 0.667969 -2 C 0.667969 -2.242188 0.660156 -2.445312 0.652344 -2.621094 L 0.945312 -2.472656 L 2.195312 -2.472656 C 2.164062 -2.832031 2.136719 -3.125 2.117188 -3.351562 L 2.539062 -3.191406 L 2.425781 -3.058594 C 2.425781 -2.886719 2.4375 -2.691406 2.457031 -2.472656 L 3.351562 -2.472656 L 3.582031 -2.703125 L 3.90625 -2.375 L 2.457031 -2.375 C 2.523438 -1.660156 2.636719 -1.15625 2.800781 -0.863281 C 2.886719 -0.992188 2.972656 -1.160156 3.058594 -1.367188 C 3.148438 -1.574219 3.234375 -1.804688 3.320312 -2.066406 L 3.660156 -1.804688 L 3.515625 -1.726562 C 3.332031 -1.28125 3.140625 -0.917969 2.945312 -0.632812 C 3.171875 -0.363281 3.414062 -0.171875 3.660156 -0.0664062 Z "/>
</g>
<g id="glyph-1-0">
<path d="M 0.84375 -0.234375 C 0.84375 -0.15625 0.816406 -0.09375 0.761719 -0.0390625 C 0.707031 0.015625 0.640625 0.0390625 0.566406 0.0390625 C 0.488281 0.0390625 0.425781 0.015625 0.371094 -0.0390625 C 0.3125 -0.09375 0.285156 -0.15625 0.285156 -0.234375 C 0.285156 -0.308594 0.3125 -0.375 0.371094 -0.429688 C 0.425781 -0.484375 0.488281 -0.511719 0.566406 -0.511719 C 0.640625 -0.511719 0.707031 -0.484375 0.761719 -0.429688 C 0.816406 -0.375 0.84375 -0.308594 0.84375 -0.234375 Z "/>
</g>
</g>
</defs>
<g fill="rgb(100%, 100%, 100%)" fill-opacity="1">
<use xlink:href="#glyph-0-0" x="30" y="24.09082"/>
<use xlink:href="#glyph-0-1" x="34" y="24.09082"/>
<use xlink:href="#glyph-0-2" x="38" y="24.09082"/>
<use xlink:href="#glyph-0-3" x="42" y="24.09082"/>
<use xlink:href="#glyph-0-4" x="46" y="24.09082"/>
<use xlink:href="#glyph-0-5" x="50" y="24.09082"/>
</g>
<g fill="rgb(100%, 100%, 100%)" fill-opacity="1">
<use xlink:href="#glyph-1-0" x="54" y="23.820312"/>
<use xlink:href="#glyph-1-0" x="55" y="23.820312"/>
<use xlink:href="#glyph-1-0" x="56" y="23.820312"/>
</g>
</svg>
