<?xml version="1.0" encoding="UTF-8"?>
<svg xmlns="http://www.w3.org/2000/svg" xmlns:xlink="http://www.w3.org/1999/xlink" width="1920" height="1080" viewBox="0 0 1920 1080">
<defs>
<g>
<g id="glyph-0-0">
<path d="M 2.570312 -2.691406 L 2.917969 -2.429688 L 2.761719 -2.359375 C 2.632812 -2.128906 2.480469 -1.859375 2.308594 -1.546875 C 2.550781 -1.289062 2.714844 -1.101562 2.792969 -0.980469 C 2.875 -0.859375 2.917969 -0.753906 2.917969 -0.660156 C 2.917969 -0.613281 2.902344 -0.554688 2.871094 -0.484375 C 2.84375 -0.417969 2.816406 -0.382812 2.792969 -0.382812 C 2.761719 -0.382812 2.726562 -0.441406 2.691406 -0.554688 C 2.621094 -0.730469 2.453125 -1.007812 2.1875 -1.390625 C 1.886719 -0.914062 1.488281 -0.507812 0.988281 -0.171875 L 0.953125 -0.226562 C 1.382812 -0.585938 1.753906 -1.023438 2.066406 -1.546875 C 1.925781 -1.71875 1.691406 -1.992188 1.355469 -2.359375 L 1.40625 -2.394531 C 1.648438 -2.199219 1.898438 -1.972656 2.152344 -1.71875 C 2.246094 -1.878906 2.324219 -2.046875 2.394531 -2.214844 C 2.464844 -2.382812 2.523438 -2.539062 2.570312 -2.691406 M 3.941406 -0.0703125 L 4.113281 -0.832031 L 4.183594 -0.816406 C 4.148438 -0.503906 4.136719 -0.261719 4.148438 -0.09375 C 4.160156 0.0742188 4.183594 0.203125 4.21875 0.296875 C 4.230469 0.328125 4.21875 0.347656 4.183594 0.347656 C 4.136719 0.347656 4.042969 0.308594 3.898438 0.234375 C 3.753906 0.160156 3.597656 -0.0078125 3.4375 -0.269531 C 3.273438 -0.53125 3.183594 -0.875 3.160156 -1.300781 C 3.136719 -1.730469 3.125 -2.316406 3.125 -3.054688 L 1.078125 -3.054688 C 1.078125 -2.09375 1.066406 -1.488281 1.042969 -1.234375 C 1.019531 -0.976562 0.957031 -0.71875 0.859375 -0.453125 C 0.761719 -0.183594 0.554688 0.109375 0.242188 0.433594 L 0.191406 0.398438 C 0.433594 0.0976562 0.597656 -0.195312 0.675781 -0.484375 C 0.757812 -0.773438 0.804688 -1.066406 0.816406 -1.363281 C 0.828125 -1.65625 0.832031 -1.949219 0.832031 -2.238281 C 0.832031 -2.609375 0.828125 -2.972656 0.816406 -3.332031 L 1.109375 -3.160156 L 3.089844 -3.160156 L 3.246094 -3.351562 L 3.507812 -3.105469 L 3.367188 -2.984375 C 3.355469 -2.09375 3.371094 -1.488281 3.410156 -1.171875 C 3.453125 -0.851562 3.519531 -0.617188 3.609375 -0.460938 C 3.703125 -0.304688 3.8125 -0.171875 3.941406 -0.0703125 Z "/>
</g>
<g id="glyph-0-1">
<path d="M 2.605469 -3.628906 L 2.949219 -3.417969 L 2.8125 -3.316406 C 2.960938 -3.0625 3.144531 -2.828125 3.359375 -2.613281 C 3.574219 -2.398438 3.871094 -2.246094 4.253906 -2.152344 L 4.253906 -2.082031 C 4.089844 -2.070312 3.980469 -2.003906 3.921875 -1.875 C 3.632812 -2.035156 3.398438 -2.238281 3.210938 -2.472656 C 3.027344 -2.710938 2.875 -2.972656 2.761719 -3.261719 C 2.550781 -2.882812 2.34375 -2.582031 2.136719 -2.371094 C 1.925781 -2.15625 1.703125 -1.972656 1.457031 -1.824219 L 1.421875 -1.875 C 1.679688 -2.082031 1.910156 -2.339844 2.117188 -2.648438 C 2.324219 -2.953125 2.488281 -3.28125 2.605469 -3.628906 M 1.824219 -1.960938 L 3.140625 -1.960938 L 3.351562 -2.171875 L 3.644531 -1.859375 L 2.394531 -1.859375 C 2.246094 -1.859375 2.105469 -1.839844 1.980469 -1.804688 L 1.824219 -1.960938 M 1.789062 -1.355469 L 1.839844 -1.390625 C 2.09375 -1.078125 2.238281 -0.867188 2.273438 -0.765625 C 2.308594 -0.660156 2.324219 -0.585938 2.324219 -0.539062 C 2.324219 -0.445312 2.296875 -0.371094 2.238281 -0.3125 C 2.179688 -0.253906 2.148438 -0.226562 2.136719 -0.226562 C 2.089844 -0.226562 2.058594 -0.300781 2.046875 -0.453125 C 2.023438 -0.648438 1.9375 -0.949219 1.789062 -1.355469 M 2.378906 -1.511719 L 2.429688 -1.546875 C 2.730469 -1.175781 2.894531 -0.917969 2.917969 -0.773438 C 2.941406 -0.628906 2.917969 -0.527344 2.855469 -0.46875 C 2.792969 -0.410156 2.75 -0.382812 2.726562 -0.382812 C 2.679688 -0.382812 2.648438 -0.464844 2.636719 -0.625 C 2.617188 -0.855469 2.527344 -1.152344 2.378906 -1.511719 M 3.507812 -1.648438 L 3.90625 -1.421875 C 3.800781 -1.355469 3.6875 -1.164062 3.558594 -0.851562 C 3.417969 -0.539062 3.28125 -0.21875 3.140625 0.105469 L 3.523438 0.105469 L 3.800781 -0.15625 L 4.113281 0.207031 L 1.945312 0.207031 C 1.792969 0.207031 1.65625 0.226562 1.527344 0.261719 L 1.371094 0.105469 L 3.019531 0.105469 C 3.273438 -0.625 3.4375 -1.210938 3.507812 -1.648438 M 0.746094 -0.886719 L 0.746094 -0.953125 C 0.910156 -0.921875 1.023438 -0.902344 1.09375 -0.902344 C 1.199219 -0.902344 1.273438 -0.929688 1.320312 -0.988281 C 1.367188 -1.046875 1.390625 -1.109375 1.390625 -1.179688 C 1.390625 -1.226562 1.367188 -1.332031 1.328125 -1.492188 C 1.289062 -1.65625 1.1875 -1.875 1.023438 -2.152344 L 1.300781 -3.175781 L 0.660156 -3.175781 L 0.660156 0.3125 L 0.417969 0.433594 C 0.429688 0.144531 0.433594 -0.503906 0.433594 -1.511719 C 0.433594 -2.515625 0.429688 -3.160156 0.417969 -3.4375 L 0.660156 -3.28125 L 1.285156 -3.28125 L 1.441406 -3.472656 L 1.71875 -3.210938 L 1.5625 -3.125 L 1.109375 -2.152344 C 1.238281 -2.015625 1.355469 -1.867188 1.457031 -1.710938 C 1.5625 -1.554688 1.621094 -1.390625 1.632812 -1.222656 C 1.644531 -1.054688 1.613281 -0.910156 1.546875 -0.789062 C 1.476562 -0.667969 1.324219 -0.585938 1.09375 -0.539062 C 1.105469 -0.6875 0.988281 -0.804688 0.746094 -0.886719 Z "/>
</g>
<g id="glyph-0-2">
<path d="M 1.179688 -1.667969 L 1.179688 -1.300781 L 2.101562 -1.300781 L 2.101562 -1.667969 L 1.179688 -1.667969 M 2.324219 -1.667969 L 2.324219 -1.300781 L 3.210938 -1.300781 L 3.210938 -1.667969 L 2.324219 -1.667969 M 1.179688 -1.199219 L 1.179688 -0.851562 L 2.101562 -0.851562 L 2.101562 -1.199219 L 1.179688 -1.199219 M 2.324219 -1.199219 L 2.324219 -0.851562 L 3.210938 -0.851562 L 3.210938 -1.199219 L 2.324219 -1.199219 M 3.4375 -1.613281 C 3.4375 -1.164062 3.441406 -0.863281 3.453125 -0.710938 L 3.210938 -0.609375 L 3.210938 -0.746094 L 2.324219 -0.746094 L 2.324219 -0.363281 L 3.261719 -0.363281 L 3.507812 -0.574219 L 3.785156 -0.261719 L 2.324219 -0.261719 L 2.324219 0.15625 L 3.664062 0.15625 L 3.921875 -0.0859375 L 4.21875 0.261719 L 0.816406 0.261719 C 0.664062 0.261719 0.527344 0.277344 0.398438 0.3125 L 0.242188 0.15625 L 2.101562 0.15625 L 2.101562 -0.261719 L 1.199219 -0.261719 C 1.046875 -0.261719 0.910156 -0.242188 0.78125 -0.207031 L 0.625 -0.363281 L 2.101562 -0.363281 L 2.101562 -0.746094 L 1.179688 -0.746094 L 1.179688 -0.640625 L 0.9375 -0.554688 C 0.949219 -0.785156 0.953125 -1.015625 0.953125 -1.242188 C 0.953125 -1.46875 0.949219 -1.691406 0.9375 -1.910156 L 1.179688 -1.769531 L 3.195312 -1.769531 L 3.296875 -1.910156 L 3.558594 -1.71875 L 3.4375 -1.613281 M 1.234375 -3.332031 L 1.234375 -3.039062 L 3.160156 -3.039062 L 3.160156 -3.332031 L 1.234375 -3.332031 M 1.234375 -2.933594 L 1.234375 -2.621094 L 3.160156 -2.621094 L 3.160156 -2.933594 L 1.234375 -2.933594 M 3.386719 -3.296875 C 3.386719 -2.871094 3.390625 -2.585938 3.402344 -2.449219 L 3.160156 -2.34375 L 3.160156 -2.515625 L 1.234375 -2.515625 L 1.234375 -2.359375 L 0.988281 -2.257812 C 1 -2.441406 1.007812 -2.675781 1.007812 -2.960938 C 1.007812 -3.242188 1 -3.441406 0.988281 -3.558594 L 1.25 -3.4375 L 3.125 -3.4375 L 3.230469 -3.59375 L 3.507812 -3.402344 L 3.386719 -3.296875 M 0.171875 -2.171875 L 3.730469 -2.171875 L 3.976562 -2.394531 L 4.269531 -2.066406 L 0.660156 -2.066406 C 0.566406 -2.066406 0.457031 -2.046875 0.328125 -2.015625 Z "/>
</g>
<g id="glyph-0-3">
<path d="M 0.953125 0.417969 C 0.964844 0.046875 0.972656 -0.308594 0.972656 -0.640625 L 0.972656 -2.171875 C 0.71875 -1.789062 0.472656 -1.476562 0.242188 -1.234375 L 0.191406 -1.285156 C 0.445312 -1.644531 0.683594 -2.058594 0.902344 -2.535156 C 1.121094 -3.007812 1.261719 -3.367188 1.320312 -3.609375 L 1.703125 -3.386719 L 1.527344 -3.28125 C 1.378906 -2.945312 1.238281 -2.65625 1.109375 -2.414062 L 1.355469 -2.273438 L 1.214844 -2.136719 L 1.214844 -0.242188 C 1.214844 -0.117188 1.222656 0.0585938 1.234375 0.277344 L 0.953125 0.417969 M 2.394531 -1.476562 L 2.394531 -2.726562 C 2.394531 -2.980469 2.390625 -3.273438 2.378906 -3.609375 L 2.777344 -3.417969 L 2.636719 -3.28125 L 2.636719 -1.667969 C 2.800781 -1.816406 2.976562 -2.007812 3.167969 -2.238281 C 3.359375 -2.472656 3.496094 -2.65625 3.574219 -2.792969 L 3.886719 -2.5 L 3.699219 -2.449219 C 3.363281 -2.066406 3.007812 -1.710938 2.636719 -1.390625 L 2.636719 -0.296875 C 2.636719 -0.0976562 2.738281 0 2.933594 0 L 3.679688 0 C 3.773438 0 3.832031 -0.0742188 3.855469 -0.226562 C 3.875 -0.375 3.886719 -0.609375 3.886719 -0.921875 L 3.976562 -0.921875 C 4 -0.609375 4.027344 -0.398438 4.0625 -0.296875 C 4.097656 -0.191406 4.160156 -0.121094 4.253906 -0.0859375 C 4.148438 0.121094 3.980469 0.226562 3.75 0.226562 L 2.828125 0.226562 C 2.539062 0.226562 2.394531 0.09375 2.394531 -0.171875 L 2.394531 -1.234375 C 2.09375 -1 1.746094 -0.804688 1.355469 -0.640625 L 1.335938 -0.710938 C 1.742188 -0.941406 2.09375 -1.199219 2.394531 -1.476562 Z "/>
</g>
<g id="glyph-1-0">
<path d="M 0.902344 -0.25 C 0.902344 -0.167969 0.871094 -0.0976562 0.8125 -0.0429688 C 0.753906 0.015625 0.683594 0.0429688 0.601562 0.0429688 C 0.523438 0.0429688 0.453125 0.015625 0.394531 -0.0429688 C 0.335938 -0.0976562 0.304688 -0.167969 0.304688 -0.25 C 0.304688 -0.332031 0.335938 -0.398438 0.394531 -0.457031 C 0.453125 -0.515625 0.523438 -0.546875 0.601562 -0.546875 C 0.683594 -0.546875 0.753906 -0.515625 0.8125 -0.457031 C 0.871094 -0.398438 0.902344 -0.332031 0.902344 -0.25 Z "/>
</g>
</g>
</defs>
<g fill="rgb(48.235294%, 38.039216%, 100%)" fill-opacity="1">
<use xlink:href="#glyph-0-0" x="30" y="24.363281"/>
<use xlink:href="#glyph-0-1" x="34" y="24.363281"/>
<use xlink:href="#glyph-0-2" x="38" y="24.363281"/>
<use xlink:href="#glyph-0-3" x="42" y="24.363281"/>
</g>
<g fill="rgb(48.235294%, 38.039216%, 100%)" fill-opacity="1">
<use xlink:href="#glyph-1-0" x="46" y="24.074219"/>
<use xlink:href="#glyph-1-0" x="47" y="24.074219"/>
<use xlink:href="#glyph-1-0" x="48" y="24.074219"/>
</g>
</svg>
